<svg xmlns="http://www.w3.org/2000/svg" width="1242" height="1242" viewBox="0 0 1242 1242">
  <path fill="#D49A13" transform="translate(411 330) scale(4.2)" d="M50 27C44 20 39 16 32 16C23 16 20 24 12 23C8 22 6 19 8 15C3 16 2 23 6 28C12 35 24 36 35 33C42 31 47 28 50 27C53 28 58 31 65 33C76 36 88 35 94 28C98 23 97 16 92 15C94 19 92 22 88 23C80 24 77 16 68 16C61 16 56 20 50 27Z"/>
  <text x="621" y="640" fill="#F2C65C" font-family="DejaVu Sans, sans-serif" font-size="72" font-weight="800" letter-spacing="9" text-anchor="middle">FIO DO BIGODE</text>
  <text x="621" y="718" fill="#FFFFFF" font-family="DejaVu Sans, sans-serif" font-size="30" font-weight="500" text-anchor="middle">Combinou. Registrou. Tá no Fio do Bigode.</text>
</svg>
